<svg xmlns="http://www.w3.org/2000/svg" viewBox="0 0 100 100" width="100" height="100">
  <rect width="100" height="100" rx="22" fill="#1B1E24"/>
  <g transform="translate(6,12) scale(0.8)" fill="none" stroke-linejoin="round" stroke-linecap="round">
    <path d="M16 54 L50 26 L84 54 V86 H16 Z" stroke="#20C5CE" stroke-width="5"/>
    <rect x="38" y="58" width="24" height="20" rx="3" stroke="#20C5CE" stroke-width="3.5"/>
    <line x1="43" y1="64" x2="57" y2="64" stroke="#20C5CE" stroke-width="2.6"/>
    <line x1="43" y1="70" x2="53" y2="70" stroke="#20C5CE" stroke-width="2.6"/>
    <g stroke="url(#fg)" stroke-width="5">
      <path d="M58 30 A14 14 0 0 1 72 44"/>
      <path d="M62 22 A24 24 0 0 1 86 46"/>
      <path d="M66 14 A34 34 0 0 1 100 48"/>
    </g>
  </g>
  <defs>
    <linearGradient id="fg" x1="55" y1="20" x2="95" y2="50" gradientUnits="userSpaceOnUse">
      <stop stop-color="#36DDE4"/><stop offset="0.5" stop-color="#8B5CF6"/><stop offset="1" stop-color="#EA53C6"/>
    </linearGradient>
  </defs>
</svg>
